<svg xmlns="http://www.w3.org/2000/svg" viewBox="0 0 1287 203" width="1287" height="203">
<g fill="#A6E51A" fill-rule="evenodd">
<path d="M 100,120 L 44,120 L 0,190 L 57,190 Z"/>
<path d="M 216,68 L 157,68 L 81,190 L 143,190 Z"/>
<path d="M 347,0 L 285,1 L 169,190 L 232,190 L 337,19 Z"/>
</g><g fill="#FFFFFF" fill-rule="evenodd">
<path d="M 765,188 L 825,188 L 821,164 L 791,163 Z"/>
<path d="M 1141,64 L 1087,187 L 1123,187 L 1156,108 L 1164,93 L 1247,93 L 1250,98 L 1243,113 L 1237,118 L 1170,119 L 1158,147 L 1188,147 L 1237,202 L 1281,202 L 1234,148 L 1235,146 L 1249,144 L 1257,140 L 1272,124 L 1286,88 L 1285,76 L 1278,67 L 1270,64 Z"/>
<path d="M 500,188 L 539,188 L 559,148 L 612,148 L 637,188 L 685,188 L 658,148 L 679,142 L 689,135 L 697,126 L 715,92 L 716,78 L 711,69 L 701,64 L 565,64 L 549,93 L 670,93 L 675,98 L 668,112 L 659,119 L 539,119 L 534,121 Z"/>
<path d="M 903,188 L 939,188 L 959,146 L 986,146 L 1028,187 L 1078,187 L 1021,124 L 1116,63 L 1064,63 L 981,116 L 973,116 L 972,113 L 995,63 L 958,64 Z"/>
<path d="M 868,66 L 864,63 L 827,63 L 819,66 L 693,188 L 737,187 L 831,95 L 834,103 L 849,187 L 890,188 Z"/>
<path d="M 379,188 L 418,188 L 464,96 L 467,93 L 529,93 L 544,63 L 376,63 L 360,93 L 426,94 Z"/>
</g></svg>